<svg width="1290" height="1286" viewBox="0 0 1290 1286" fill="none" xmlns="http://www.w3.org/2000/svg">
<path d="M782.394 131.875C876.423 -17.0058 1102.69 113.265 1020.26 268.777C1176.33 186.636 1307.07 412.311 1157.65 505.789C1334.12 512.421 1334.12 772.962 1157.65 779.594C1307.07 873.286 1176.33 1098.75 1020.26 1016.61C1102.69 1172.12 876.208 1302.39 782.394 1153.51C775.739 1329.34 514.261 1329.34 507.606 1153.51C413.577 1302.39 187.307 1172.12 269.743 1016.61C113.672 1098.75 -17.0669 873.072 132.349 779.594C-44.1163 772.962 -44.1163 512.421 132.349 505.789C-17.0669 412.097 113.672 186.636 269.743 268.777C187.307 113.265 413.792 -17.0058 507.606 131.875C514.261 -43.9584 775.739 -43.9584 782.394 131.875Z" fill="#81D4FA"/>
</svg>
