<svg width="190" height="40" viewBox="0 0 190 40" fill="none" xmlns="http://www.w3.org/2000/svg">
<g clip-path="url(#clip0_519_2381)">
<path d="M50 19.9426C50 12.4089 55.6929 7.5 62.2721 7.5C67.2737 7.5 71.7319 9.74129 73.5792 14.7323C73.5859 14.7504 73.5849 14.7708 73.5762 14.7882C73.5638 14.8131 73.5383 14.8283 73.5104 14.8273C72.1631 14.779 70.0276 15.5328 69.0304 16.3938C69.0035 16.4171 68.9669 16.4245 68.9332 16.4132C68.9032 16.4032 68.8798 16.3792 68.87 16.3492C67.9677 13.5832 65.2547 11.9657 62.2721 11.9657C57.8746 11.9657 54.7384 15.4428 54.7384 19.9426C54.7384 24.4424 57.8746 27.9195 62.2721 27.9195C65.3923 27.9195 68.0064 26.1649 68.9394 23.3944C68.948 23.3689 68.9718 23.3515 68.9986 23.3515C69.0136 23.3515 69.0278 23.3567 69.0391 23.3664C70.0593 24.238 72.2251 25.0064 73.551 24.9555C73.576 24.9545 73.5999 24.9638 73.6177 24.9816C73.6422 25.0061 73.65 25.0432 73.6377 25.0757C71.7518 30.0499 67.4012 32.3852 62.2721 32.3852C55.6929 32.3852 50 27.4763 50 19.9426Z" fill="#15171A"/>
<path d="M74.425 23.5901C74.425 18.7836 77.5953 14.9656 82.2996 14.9656C84.0955 14.9656 86.0883 15.7286 87.2951 17.1918C87.4612 17.3933 87.8562 17.2814 87.8562 17.0203V15.5905C87.8562 15.4525 87.9681 15.3405 88.1062 15.3405H91.7651C91.9031 15.3405 92.0151 15.4525 92.0151 15.5905V31.6238C92.0151 31.7619 91.9031 31.8738 91.7651 31.8738H88.1062C87.9681 31.8738 87.8562 31.7619 87.8562 31.6238V30.1661C87.8562 29.9068 87.4698 29.7957 87.3046 29.9955C86.0795 31.4764 84.0774 32.2488 82.2996 32.2488C77.5953 32.2488 74.425 28.4308 74.425 23.5901ZM83.2541 28.2945C85.9472 28.2945 87.8221 26.215 87.8221 23.5901C87.8221 20.9653 85.9813 18.9199 83.2541 18.9199C80.527 18.9199 78.7202 20.9994 78.7202 23.5901C78.7202 26.1809 80.6292 28.2945 83.2541 28.2945Z" fill="#15171A"/>
<path d="M93.4113 15.5905C93.4113 15.4525 93.5232 15.3405 93.6613 15.3405H95.4112C95.5493 15.3405 95.6612 15.2286 95.6612 15.0905V9.89763C95.6612 9.75955 95.7731 9.64763 95.9112 9.64763H99.7064C99.8445 9.64763 99.9564 9.75955 99.9564 9.89763V15.0905C99.9564 15.2286 100.068 15.3405 100.206 15.3405H102.127C102.265 15.3405 102.377 15.4525 102.377 15.5905V18.9085C102.377 19.0466 102.265 19.1585 102.127 19.1585H100.206C100.068 19.1585 99.9564 19.2705 99.9564 19.4085V31.6238C99.9564 31.7619 99.8445 31.8738 99.7064 31.8738H95.9112C95.7731 31.8738 95.6612 31.7619 95.6612 31.6238V19.4085C95.6612 19.2705 95.5493 19.1585 95.4112 19.1585H93.6613C93.5232 19.1585 93.4113 19.0466 93.4113 18.9085V15.5905Z" fill="#15171A"/>
<path d="M102.65 23.5901C102.65 18.7836 105.82 14.9656 110.524 14.9656C112.32 14.9656 114.313 15.7286 115.52 17.1918C115.686 17.3933 116.081 17.2814 116.081 17.0203V15.5905C116.081 15.4525 116.193 15.3405 116.331 15.3405H119.99C120.128 15.3405 120.24 15.4525 120.24 15.5905V31.6238C120.24 31.7619 120.128 31.8738 119.99 31.8738H116.331C116.193 31.8738 116.081 31.7619 116.081 31.6238V30.1661C116.081 29.9068 115.694 29.7957 115.529 29.9955C114.304 31.4764 112.302 32.2488 110.524 32.2488C105.82 32.2488 102.65 28.4308 102.65 23.5901ZM111.479 28.2945C114.172 28.2945 116.047 26.215 116.047 23.5901C116.047 20.9653 114.206 18.9199 111.479 18.9199C108.751 18.9199 106.945 20.9994 106.945 23.5901C106.945 26.1809 108.854 28.2945 111.479 28.2945Z" fill="#15171A"/>
<path d="M122.489 8.26134C122.489 8.12327 122.601 8.01134 122.739 8.01134H126.535C126.673 8.01134 126.785 8.12327 126.785 8.26134V31.6238C126.785 31.7619 126.673 31.8738 126.535 31.8738H122.739C122.601 31.8738 122.489 31.7619 122.489 31.6238V8.26134Z" fill="#15171A"/>
<path d="M140.595 15.4943C140.634 15.4012 140.725 15.3405 140.826 15.3405H144.978C145.159 15.3405 145.28 15.527 145.206 15.6924L135.544 37.3504C135.503 37.4405 135.414 37.4986 135.315 37.4986H131.194C131.013 37.4986 130.892 37.3113 130.966 37.1459L133.864 30.7127C133.893 30.6489 133.894 30.5759 133.866 30.5116L127.514 15.689C127.443 15.5241 127.564 15.3405 127.743 15.3405H132.001C132.103 15.3405 132.196 15.4033 132.233 15.4989L136.202 25.5714C136.217 25.6101 136.255 25.6355 136.296 25.6355C136.337 25.6355 136.374 25.611 136.39 25.5733L140.595 15.4943Z" fill="#15171A"/>
<path d="M144.482 27.3303C144.479 27.3146 144.481 27.2981 144.488 27.2838C144.502 27.2562 144.531 27.2403 144.562 27.2434C145.64 27.3515 147.304 26.6985 148.026 25.9081C148.044 25.8881 148.073 25.8826 148.098 25.8947C148.115 25.9032 148.126 25.9194 148.13 25.9381C148.415 27.5256 149.807 28.7376 151.704 28.7376C153.17 28.7376 154.022 28.0558 154.022 27.0332C154.022 26.0105 153.136 25.6355 151.943 25.3628L150.306 25.0219C146.863 24.2719 145.227 22.7038 145.227 20.113C145.227 17.2154 147.784 14.7951 151.568 14.7951C155.337 14.7951 157.382 16.7913 158.037 19.1321C158.042 19.1491 158.04 19.1673 158.032 19.1831C158.019 19.2094 157.992 19.2249 157.962 19.2228C156.854 19.145 155.219 19.7985 154.496 20.5895C154.478 20.61 154.448 20.6157 154.423 20.6033C154.407 20.5951 154.395 20.5796 154.391 20.5617C154.042 19.0465 152.888 18.2722 151.431 18.2722C150.17 18.2722 149.352 18.954 149.352 19.7721C149.352 20.7266 150.375 21.0675 151.568 21.3403L153.17 21.6471C155.761 22.1925 158.181 23.5561 158.181 26.7605C158.181 29.9648 155.522 32.3852 151.636 32.3852C147.76 32.3852 145.104 30.486 144.482 27.3303Z" fill="#15171A"/>
<path d="M158.726 23.5901C158.726 18.7495 162.272 14.8292 167.146 14.8292C172.664 14.8292 176.024 19.2124 175.389 24.7015C175.375 24.8259 175.268 24.9196 175.143 24.9196H163.156C162.998 24.9196 162.88 25.0646 162.919 25.2174C163.482 27.4217 165.235 28.7035 167.487 28.7035C169.617 28.7035 171.11 27.4629 171.667 25.946C171.675 25.9234 171.696 25.9082 171.72 25.9082C171.738 25.9082 171.755 25.9162 171.766 25.9301C172.441 26.7861 174.061 27.5724 175.176 27.5796C175.222 27.5799 175.26 27.6168 175.26 27.663C175.26 27.6748 175.257 27.6865 175.252 27.6972C173.784 30.8904 170.822 32.3852 167.385 32.3852C162.306 32.3852 158.726 28.4649 158.726 23.5901ZM170.982 21.613C171.146 21.613 171.266 21.4582 171.215 21.3027C170.635 19.5082 169.21 18.4086 167.112 18.4086C165.145 18.4086 163.697 19.5067 163.084 21.299C163.031 21.4553 163.151 21.613 163.316 21.613H170.982Z" fill="#15171A"/>
<path d="M176.964 15.5905C176.964 15.4525 177.076 15.3405 177.214 15.3405H180.907C181.045 15.3405 181.157 15.4525 181.157 15.5905V16.8815C181.157 17.1549 181.596 17.2587 181.75 17.0332C182.578 15.825 183.835 15.0337 185.486 15.0337C186.966 15.0337 188.081 15.465 188.765 16.2292C188.783 16.2496 188.793 16.276 188.793 16.3033C188.793 16.3408 188.775 16.3754 188.744 16.3973C187.821 17.0588 186.881 18.7136 186.786 19.8837C186.783 19.9195 186.76 19.95 186.725 19.9614C186.697 19.9709 186.666 19.965 186.642 19.9468C186.258 19.6567 185.563 19.4653 184.805 19.4653C182.112 19.4653 181.259 21.9879 181.259 24.7833V31.6238C181.259 31.7619 181.147 31.8738 181.009 31.8738H177.214C177.076 31.8738 176.964 31.7619 176.964 31.6238V15.5905Z" fill="#15171A"/>
</g>
<g clip-path="url(#clip1_519_2381)">
<path d="M38.9792 18.9117L30.1667 18.3464C29.125 18.2796 28.7628 16.9286 29.6316 16.3497L36.9807 11.4537C38.1164 10.6974 37.1149 8.96309 35.8921 9.56814L27.9776 13.4847C27.042 13.9476 26.0532 12.9587 26.516 12.0231L30.4326 4.10865C31.0377 2.8859 29.3033 1.8844 28.547 3.02001L23.651 10.3692C23.0722 11.2379 21.7212 10.8758 21.6543 9.8341L21.089 1.02152C21.0019 -0.339855 18.9989 -0.339855 18.9117 1.02152L18.3464 9.8341C18.2796 10.8758 16.9286 11.2379 16.3497 10.3692L11.4537 3.02001C10.6974 1.8844 8.96309 2.8859 9.56814 4.10865L13.4847 12.0231C13.9476 12.9587 12.9587 13.9476 12.0231 13.4847L4.10865 9.56814C2.8859 8.96309 1.8844 10.6974 3.02001 11.4537L10.3692 16.3497C11.2379 16.9286 10.8758 18.2796 9.8341 18.3464L1.02152 18.9117C-0.339855 18.9989 -0.339855 21.0019 1.02152 21.089L9.8341 21.6543C10.8758 21.7212 11.2379 23.0722 10.3692 23.651L3.02001 28.547C1.8844 29.3033 2.8859 31.0377 4.10865 30.4326L12.0231 26.516C12.9587 26.0532 13.9476 27.042 13.4847 27.9776L9.56814 35.8921C8.96309 37.1149 10.6974 38.1164 11.4537 36.9807L16.3497 29.6316C16.9286 28.7628 18.2796 29.125 18.3464 30.1667L18.9117 38.9792C18.9989 40.3406 21.0019 40.3406 21.089 38.9792L21.6543 30.1667C21.7212 29.125 23.0722 28.7628 23.651 29.6316L28.547 36.9807C29.3033 38.1164 31.0377 37.1149 30.4326 35.8921L26.516 27.9776C26.0532 27.042 27.042 26.0532 27.9776 26.516L35.8921 30.4326C37.1149 31.0377 38.1164 29.3033 36.9807 28.547L29.6316 23.651C28.7628 23.0722 29.125 21.7212 30.1667 21.6543L38.9792 21.089C40.3406 21.0019 40.3406 18.9989 38.9792 18.9117ZM20.0004 25.4075C17.0144 25.4075 14.5933 22.9868 14.5933 20.0004C14.5933 17.0139 17.0139 14.5933 20.0004 14.5933C22.9868 14.5933 25.4075 17.0139 25.4075 20.0004C25.4075 22.9868 22.9868 25.4075 20.0004 25.4075Z" fill="#EC6256"/>
</g>
<defs>
<clipPath id="clip0_519_2381">
<rect width="138.793" height="30" fill="white" transform="translate(50 7.5)"/>
</clipPath>
<clipPath id="clip1_519_2381">
<rect width="40" height="40" fill="white"/>
</clipPath>
</defs>
</svg>
