<svg width="1338" height="1347" viewBox="0 0 1338 1347" fill="none" xmlns="http://www.w3.org/2000/svg">
<path d="M762.674 90.0026L771.8 287.171L877.552 121.085C941.97 20.0006 1094.56 108.652 1039.8 215.412L949.754 390.687L1123.82 300.009C1229.84 244.872 1317.87 398.525 1217.49 463.392L1052.55 569.881L1248.36 579.071C1367.53 584.612 1367.53 762.049 1248.36 767.725L1052.55 776.914L1217.49 883.404C1317.87 948.271 1229.84 1101.92 1123.82 1046.79L949.754 956.109L1039.8 1131.38C1094.56 1238.14 941.97 1326.8 877.552 1225.71L771.8 1059.63L762.674 1256.79C757.172 1376.8 580.963 1376.8 575.326 1256.79L566.2 1059.63L460.448 1225.71C396.03 1326.8 243.441 1238.14 298.196 1131.38L388.246 956.109L214.185 1046.79C108.164 1101.92 20.1263 948.271 120.51 883.404L285.447 776.914L89.6437 767.725C-29.529 762.184 -29.529 584.747 89.6437 579.071L285.447 569.881L120.51 463.392C20.1263 398.525 108.164 244.872 214.185 300.009L388.246 390.687L298.196 215.412C243.441 108.652 396.03 20.0006 460.448 121.085L566.2 287.171L575.326 90.0026C580.828 -30.0009 757.038 -30.0009 762.674 90.0026Z" fill="#AFFC8A"/>
</svg>
